<svg width="290" height="257" viewBox="0 0 290 257" fill="none" xmlns="http://www.w3.org/2000/svg">
<path d="M24.0001 257H78.0001L93.5 160.5C93.5 160.5 201.14 75.3813 172 19.4999C170.219 16.0852 169.465 13.9589 167 11C164.965 8.55783 161 5.5 161 5.5C161 5.5 153.483 0.808664 147 0.499928C139.599 0.147485 135.072 2.25342 129 6.49993C123.55 10.3113 118 19.4999 118 19.4999L10.5001 204.5C6.8334 209.667 -0.199937 223 1.00006 235C2.20006 247 16.8334 254.667 24.0001 257Z" fill="#7EA2FF"/>
<path d="M78.0001 257H132L147.5 160.5L201 69L172 19.5L64.5001 204.5C60.8334 209.667 53.8001 223 55.0001 235C56.2001 247 70.8334 254.667 78.0001 257Z" fill="#6992FD"/>
<path d="M131 257H185L200.5 160.5L228.5 117L199 65.5L117.5 204.5C113.833 209.667 106.8 223 108 235C109.2 247 123.833 254.667 131 257Z" fill="#5582F8"/>
<path d="M184 257H238L253.5 160.5L225.5 111L222 117L170.5 204.5C166.833 209.667 159.8 223 161 235C162.2 247 176.833 254.667 184 257Z" fill="#4677F7"/>
<path d="M237.5 257H264.5C273.5 255 280 251.5 285.5 243C290.12 235.86 289.5 225.667 288 221C286.5 216.333 251.5 157.5 251.5 157.5C243.667 171.167 226.4 201.3 220 212.5C213.6 223.7 213.667 232.5 214.5 235.5C215.7 244.7 225 255 237.5 257Z" fill="#3A6BEB"/>
</svg>
